<?xml version="1.0"?>
<svg version="1.1" xmlns="http://www.w3.org/2000/svg" width="80" height="60" style=""><path fill="#eb2883" d="M15,22.20703125q0-0.2734375,0.380859375-0.419921875t0.498046875-0.146484375l0.72265625-0.1171875q0.72265625-0.1171875,1.46484375-0.205078125t1.4453125-0.166015625q2.48046875-0.3125,4.9609375-0.615234375t5-0.302734375q0.1953125,0,0.537109375,0.01953125t0.68359375,0.107421875t0.5859375,0.244140625t0.244140625,0.4296875q0,0.1953125-0.185546875,0.341796875t-0.439453125,0.224609375t-0.517578125,0.09765625t-0.419921875,0.01953125l-0.341796875,0t-0.341796875-0.078125q-1.03515625,0-2.041015625,0.09765625t-2.041015625,0.17578125q0.2734375,0.3125,0.29296875,0.87890625t0.0390625,0.9765625q0,6.9140625,0.09765625,13.75t0.17578125,13.80859375l0,0.0390625q-0.64453125,0.56640625-1.103515625,0.72265625t-0.927734375,0.15625q-0.44921875,0-0.908203125-0.166015625t-1.103515625-0.712890625l0-0.0390625l0.15625-15.33203125q0-1.5234375-0.0390625-3.359375t-0.0390625-3.720703125t0.05859375-3.642578125t0.3125-3.06640625q-1.15234375,0.1171875-2.44140625,0.3515625q-1.11328125,0.1953125-2.12890625,0.1953125l-0.3515625,0q-0.078125,0-0.458984375,0.01953125t-0.78125-0.01953125t-0.72265625-0.15625t-0.322265625-0.390625z M34.3099609375,43.76953125q0-4.23828125,0.380859375-8.486328125t1.591796875-8.369140625q0.3515625-1.23046875,0.91796875-2.431640625t1.38671875-2.138671875t1.953125-1.5234375t2.6953125-0.5859375l0.41015625,0.0390625q1.6796875,0.234375,2.48046875,1.357421875t0.80078125,2.802734375q0,0.44921875-0.107421875,1.123046875t-0.341796875,1.298828125t-0.634765625,1.064453125t-1.005859375,0.439453125q-0.2734375-0.0390625-0.498046875-0.09765625t-0.419921875-0.25390625q0.3125-0.68359375,0.556640625-1.42578125t0.244140625-1.69921875q0-0.3515625-0.05859375-0.8984375t-0.224609375-1.083984375t-0.439453125-0.9375t-0.76171875-0.400390625q-1.23046875,0-2.0703125,1.376953125t-1.40625,3.515625t-0.83984375,4.7265625t-0.419921875,5t-0.166015625,4.35546875t-0.01953125,2.744140625q0,0.9375-0.01953125,2.0703125l0,0.25390625q0.01953125,0.99609375,0.13671875,1.89453125q0.15625,1.015625,0.60546875,1.7578125t1.40625,0.859375q0.29296875,0.0390625,0.56640625,0.0390625q1.1328125,0,2.05078125-0.64453125q1.1328125-0.80078125,2.01171875-2.080078125t1.5625-2.8125t1.259765625-2.900390625t1.123046875-2.265625t1.1328125-0.8984375q0.1953125,0,0.5859375,0.078125t0.390625,0.37109375q0,0.078125-0.0390625,0.21484375t-0.09765625,0.21484375q-0.52734375,2.0703125-1.337890625,4.296875t-2.0703125,4.052734375t-3.0859375,2.978515625t-4.384765625,1.15234375q-1.8359375,0-2.978515625-0.693359375t-1.7578125-1.85546875t-0.83984375-2.626953125t-0.224609375-2.96875z M55.162890625,39.9609375l0-3.0859375q0-3.203125,0.107421875-6.357421875t0.185546875-6.357421875q0-0.60546875-0.0390625-1.34765625q-0.01953125-0.21484375-0.01953125-0.41015625q0-0.48828125,0.078125-0.95703125q0.09765625-0.625,0.478515625-1.07421875t1.259765625-0.44921875q0.72265625,0,1.103515625,0.15625t0.537109375,0.458984375t0.17578125,0.76171875t0.01953125,1.064453125q0,3.2421875-0.078125,6.50390625q-0.05859375,2.16796875-0.05859375,4.3359375q0,1.09375,0.01953125,2.1875q0.0390625,3.2421875,0.302734375,6.484375t0.888671875,6.40625q1.953125-0.078125,3.90625-0.1953125t3.90625-0.1171875q0.1953125,0,0.556640625,0.0390625t0.72265625,0.13671875t0.615234375,0.25390625t0.25390625,0.44921875q0,0.1953125-0.17578125,0.33203125t-0.33203125,0.21484375l-0.0390625,0q-0.3125,0.15625-1.240234375,0.302734375t-2.109375,0.224609375t-2.48046875,0.13671875t-2.44140625,0.09765625t-1.982421875,0.05859375t-1.03515625,0.01953125l-0.17578125,0q-0.46875,0-1.0546875-0.15625q-0.703125-0.1953125-0.87890625-0.76171875q-0.3515625-1.4453125-0.556640625-2.998046875t-0.3125-3.154296875t-0.107421875-3.203125z"/><path fill="#" d=""/></svg>
